<svg version="1.1" viewBox="0.0 0.0 76.0 76.0" fill="none" stroke="none" stroke-linecap="square" stroke-miterlimit="10" xmlns:xlink="http://www.w3.org/1999/xlink" xmlns="http://www.w3.org/2000/svg"><clipPath id="p.0"><path d="m0 0l76.0 0l0 76.0l-76.0 0l0 -76.0z" clip-rule="nonzero"/></clipPath><g clip-path="url(#p.0)"><path fill="#000000" fill-opacity="0.0" d="m0 0l76.0 0l0 76.0l-76.0 0z" fill-rule="evenodd"/><path fill="#bab6ff" d="m-0.026018372 38.00274l0 0c0 -20.995518 17.02023 -38.015747 38.01575 -38.015747l0 0c10.082401 0 19.751858 4.005219 26.881195 11.134555c7.1293335 7.1293354 11.134552 16.79879 11.134552 26.881193l0 0c0 20.995518 -17.02023 38.015747 -38.015747 38.015747l0 0c-20.99552 0 -38.01575 -17.02023 -38.01575 -38.015747z" fill-rule="evenodd"/><path fill="#000000" fill-opacity="0.0" d="m0.700605 0.700605l76.031494 0l0 76.031494l-76.031494 0z" fill-rule="evenodd"/><path fill="#ffffff" d="m41.603848 39.197598q-5.1875 0 -5.078125 -2.609375q0 -2.453125 4.96875 -2.453125q1.171875 0 2.234375 0.265625q1.765625 -1.765625 1.765625 -5.328123q0 -6.1875 -8.265625 -6.1875q-4.328125 0 -8.218746 1.859375q-1.4375 0.6875 -2.59375 1.28125q-1.140625 0.59375 -2.109375 0.59375q-0.953125 0 -0.953125 -0.59375q0 -0.6875 1.0625 -2.046875q1.078125 -1.359375 3.0 -2.75q4.90625 -3.421875 11.140621 -3.46875q8.15625 0 12.0 3.25q3.296875 2.71875 3.296875 7.421875q0 5.437498 -5.328125 8.312498q5.125 2.9375 6.078125 7.203125q0.328125 1.484375 0.328125 3.9375q0 2.453125 -1.34375 4.640625q-1.328125 2.1875 -3.5625 3.6875q-4.484375 2.875 -11.46875 2.875q-4.953125 0 -11.046871 -2.234375q-4.046875 -1.5 -5.96875 -3.578125q-0.953125 -1.015625 -0.9375 -2.015625q0.03125 -1.015625 1.015625 -1.015625q0.984375 0 3.765625 0.6875l0 -0.0625q0 -4.15625 0.953125 -8.53125q1.65625 -7.625 3.84375 -11.937498q2.34375 -4.796875 4.859371 -4.796875q0.6875 0 0.6875 2.40625q0 2.390625 -0.453125 4.906248q-0.453125 2.5 -0.96875 4.921875q-0.5 2.421875 -0.953125 4.40625q-0.453125 1.96875 -0.453125 2.8125l-0.5312462 8.0625q3.1406212 0.84375 5.328121 0.84375q2.1875 0 3.953125 -0.734375q4.421875 -1.875 4.421875 -6.515625q0 -2.765625 -0.53125 -4.578125q-0.53125 -1.8125 -1.921875 -3.203125q-1.21875 0.265625 -2.015625 0.265625z" fill-rule="nonzero"/><path fill="#000000" fill-opacity="0.0" d="m-0.72662336 -0.72662336l76.031494 0l0 76.031494l-76.031494 0z" fill-rule="evenodd"/><path fill="#3300ae" d="m40.17662 37.77037q-5.1875 0 -5.078125 -2.609375q0 -2.453125 4.96875 -2.453125q1.171875 0 2.234375 0.265625q1.765625 -1.765625 1.765625 -5.328125q0 -6.1875 -8.265625 -6.1875q-4.328125 0 -8.218748 1.859375q-1.4375 0.6875 -2.59375 1.28125q-1.140625 0.59375 -2.109375 0.59375q-0.953125 0 -0.953125 -0.59375q0 -0.6875 1.0625 -2.046875q1.078125 -1.359375 3.0 -2.75q4.90625 -3.421875 11.140623 -3.46875q8.15625 0 12.0 3.25q3.296875 2.71875 3.296875 7.421875q0 5.4375 -5.328125 8.3125q5.125 2.9375 6.078125 7.203125q0.328125 1.484375 0.328125 3.9375q0 2.453125 -1.34375 4.640625q-1.328125 2.1875 -3.5625 3.6875q-4.484375 2.875 -11.46875 2.875q-4.953125 0 -11.046873 -2.234375q-4.046875 -1.5 -5.96875 -3.578125q-0.953125 -1.015625 -0.9375 -2.015625q0.03125 -1.015625 1.015625 -1.015625q0.984375 0 3.765625 0.6875l0 -0.0625q0 -4.15625 0.953125 -8.53125q1.65625 -7.625 3.84375 -11.9375q2.34375 -4.796875 4.859373 -4.796875q0.6875 0 0.6875 2.40625q0 2.390625 -0.453125 4.90625q-0.453125 2.5 -0.96875 4.921875q-0.5 2.421875 -0.953125 4.40625q-0.453125 1.96875 -0.453125 2.8125l-0.5312481 8.0625q3.140623 0.84375 5.328123 0.84375q2.1875 0 3.953125 -0.734375q4.421875 -1.875 4.421875 -6.515625q0 -2.765625 -0.53125 -4.578125q-0.53125 -1.8125 -1.921875 -3.203125q-1.21875 0.265625 -2.015625 0.265625z" fill-rule="nonzero"/></g></svg>